<?xml version="1.0" encoding="utf-8"?>
<!-- Generator: Adobe Illustrator 24.2.3, SVG Export Plug-In . SVG Version: 6.00 Build 0)  -->
<svg version="1.1" id="Layer_1" xmlns="http://www.w3.org/2000/svg" xmlns:xlink="http://www.w3.org/1999/xlink" x="0px" y="0px"
	 viewBox="0 0 56 56" style="enable-background:new 0 0 56 56;" xml:space="preserve">
<style type="text/css">
	.st0{fill:#333333;}
</style>
<path class="st0" d="M49.8,8.8L28.2,2.3c-0.3-0.1-0.7-0.1-1,0l0,0L5.6,8.8C5.3,8.9,4.9,9.2,4.7,9.5c-0.2,0.3-0.3,0.7-0.3,1.1v19.6
	c0,17.1,22,23,22.9,23.3c0.3,0.1,0.6,0.1,0.9,0C29.5,53.1,51,47.1,51,30.2V10.5c0-0.4-0.1-0.8-0.3-1.1C50.4,9.2,50.1,8.9,49.8,8.8
	L49.8,8.8z M47.5,30.2c0,13.1-17,18.8-19.9,19.6C24.8,49,7.8,43.4,7.8,30.2V11.9l19.9-6l19.9,6V30.2z"/>
<path class="st0" d="M26,16.6v1.9c-1.3,0.2-2.4,0.9-3.2,2c-0.8,1.1-1.2,2.4-1.1,3.8c0.1,1.4,0.7,2.6,1.7,3.5c1,0.9,2.2,1.4,3.5,1.4
	h2.6c0.5,0,0.9,0.2,1.2,0.5c0.3,0.3,0.5,0.8,0.5,1.3c0,0.5-0.2,0.9-0.5,1.3c-0.3,0.3-0.8,0.5-1.2,0.5h-5.2c-0.5,0-0.9,0.2-1.2,0.5
	c-0.3,0.3-0.5,0.8-0.5,1.3c0,0.5,0.2,0.9,0.5,1.3c0.3,0.3,0.8,0.5,1.2,0.5H26v1.8c0,0.5,0.2,0.9,0.5,1.3c0.3,0.3,0.8,0.5,1.2,0.5
	s0.9-0.2,1.2-0.5c0.3-0.3,0.5-0.8,0.5-1.3v-1.8c1.4,0,2.7-0.6,3.7-1.6c1-1,1.5-2.4,1.5-3.8c0-1.4-0.5-2.8-1.5-3.8
	c-1-1-2.3-1.6-3.7-1.6h-2.6c-0.5,0-0.9-0.2-1.2-0.5c-0.3-0.3-0.5-0.8-0.5-1.3c0-0.5,0.2-0.9,0.5-1.3c0.3-0.3,0.8-0.5,1.2-0.5H32
	c0.5,0,0.9-0.2,1.2-0.5c0.3-0.3,0.5-0.8,0.5-1.3c0-0.5-0.2-0.9-0.5-1.3c-0.3-0.3-0.8-0.5-1.2-0.5h-2.6v-1.8c0-0.2,0-0.5-0.1-0.7
	c-0.1-0.2-0.2-0.4-0.4-0.6c-0.2-0.2-0.4-0.3-0.6-0.4c-0.2-0.1-0.4-0.1-0.7-0.1c-0.2,0-0.5,0-0.7,0.1c-0.2,0.1-0.4,0.2-0.6,0.4
	c-0.2,0.2-0.3,0.4-0.4,0.6C26,16.1,26,16.4,26,16.6L26,16.6z"/>
</svg>
