<?xml version="1.0" encoding="utf-8"?>
<!-- Generator: Adobe Illustrator 24.2.3, SVG Export Plug-In . SVG Version: 6.00 Build 0)  -->
<svg version="1.1" id="Layer_1" xmlns="http://www.w3.org/2000/svg" xmlns:xlink="http://www.w3.org/1999/xlink" x="0px" y="0px"
	 viewBox="0 0 56 56" style="enable-background:new 0 0 56 56;" xml:space="preserve">
<style type="text/css">
	.st0{fill:#333333;}
</style>
<path class="st0" d="M17,36.7c0.8,0,1.5-0.7,1.5-1.5c0-0.8-0.7-1.5-1.5-1.5c-0.8,0-1.5,0.7-1.5,1.5C15.5,36,16.2,36.7,17,36.7z"/>
<path class="st0" d="M53,2.8H18.8v16.6H2.4v33.4h34.2V36.2H53V2.8z M50.3,9.9L36.6,23.4v-3.9h-5.1L45.7,5.6l-0.1-0.1h4.7V9.9
	L50.3,9.9z M33.9,36.1c-2.3-0.4-5.8-0.8-7.1,3.4c-1,2.5-2.3,4.8-4,6.9c-0.9,1.2-1.8,2.5-2.4,3.8h-4.2c0-2,0.7-3.9,1.9-5.5
	c0.6-0.6,1.3-1.2,2-1.7c1.2-0.7,2.3-1.7,3.1-2.8c0.8-1.2,1.3-2.5,1.4-3.9c0.5-2.5,0.1-5.1-0.9-7.4c-1-2.2-1.3-4.6-1-6.9h3.9
	c0.1,0.5,0.2,1.1,0.3,1.7c0.6,3.3,1.3,7.4,5.7,9.6c0.2,0.1,0.4,0.2,0.5,0.3c0.2,0.2,0.4,0.4,0.7,0.5L33.9,36.1L33.9,36.1z
	 M12.3,38.5c-0.1-1.3-0.1-2.7,0.3-4c0.4-1.3,1-2.5,1.8-3.6c1.9-2.6,3-5.7,3-8.8h2.8c-0.3,2.7,0.1,5.4,1.1,7.8c0.9,1.9,1.1,4,0.8,6.1
	c-0.1,1-0.5,2-1.1,2.9c-0.6,0.9-1.4,1.6-2.4,2.1c-1,0.6-1.8,1.3-2.6,2.2c-1.6,2-2.5,4.5-2.5,7.1h-2.8C12,46.5,12.5,42.5,12.3,38.5
	L12.3,38.5z M33.9,31L33.9,31c-3.3-1.6-3.8-4.6-4.3-7.7c-0.1-0.4-0.1-0.8-0.2-1.2h4.5V31z M21.5,17.2l12-11.7h8.6l-14.4,14h-6.2
	V17.2z M29.7,5.4l-8.3,8.1V5.4H29.7z M9.2,22.1c-0.6,2.3-1.5,4.5-2.5,6.7C6.2,30,5.6,31.3,5,32.7V22.1H9.2z M5,41.9
	c0.9-4.2,2.3-8.2,4.1-12.1c1.2-2.5,2.1-5.1,2.7-7.7h2.8c0,2.7-0.9,5.3-2.5,7.4c-1,1.3-1.7,2.8-2.2,4.4c-0.4,1.6-0.5,3.2-0.3,4.7
	c0.2,4-0.3,7.9-1.7,11.7H5L5,41.9L5,41.9z M23.4,50.3c0.5-0.7,1.1-1.6,1.6-2.3c1.8-2.3,3.3-4.9,4.4-7.6c0.6-2,1.7-2,4.4-1.5l0.2,0
	v11.5H23.4z M36.6,27.1l13.8-13.5v8.8L38.8,33.6h-2.3V27.1z M42.6,33.6l7.7-7.6v7.6H42.6z"/>
</svg>
