<?xml version="1.0" encoding="utf-8"?>
<!-- Generator: Adobe Illustrator 24.2.3, SVG Export Plug-In . SVG Version: 6.00 Build 0)  -->
<svg version="1.1" id="Layer_1" xmlns="http://www.w3.org/2000/svg" xmlns:xlink="http://www.w3.org/1999/xlink" x="0px" y="0px"
	 viewBox="0 0 56 56" style="enable-background:new 0 0 56 56;" xml:space="preserve">
<style type="text/css">
	.st0{fill:#333333;}
</style>
<path class="st0" d="M8.3,48.2c-0.2,0-0.4-0.1-0.6-0.2c-0.2-0.2-0.3-0.4-0.3-0.6c0-0.2,0-0.5,0.1-0.7c0.1-0.2,0.3-0.4,0.5-0.5
	c0.2-0.1,0.4-0.1,0.7,0c0.2,0.1,0.4,0.2,0.5,0.4c0.1,0.2,0.2,0.4,0.2,0.7c0,0.2-0.1,0.5-0.3,0.6c-0.1,0.1-0.2,0.2-0.3,0.2
	C8.5,48.2,8.4,48.2,8.3,48.2z"/>
<path class="st0" d="M13.4,52.5h-9V50h6.7V37.4H4.4v-2.5h9V52.5z"/>
<path class="st0" d="M27.2,50H14.9V37.5l0.1-0.3c0.8-1.4,1.9-2.5,3.3-3.3c1.3-0.7,2.7-1,4.1-1.1c1.4,0,2.8,0.2,4.2,0.8
	c0.8,0.4,1.7,0.8,2.5,1.2c0.7,0.4,1.3,0.7,1.9,1c0.3,0.1,0.6,0.2,0.8,0.3c0.6,0.1,1.2,0.3,1.7,0.6c0.5,0.3,0.9,0.8,1.2,1.3
	c0.3,0.9,0.4,1.8,0.4,2.7l5.9-0.1l3-3.6c0.6-0.7,1.4-1.1,2.2-1.1s1.7,0.3,2.3,0.9c0.6,0.6,1,1.4,1.1,2.3c0,0.9-0.2,1.8-0.8,2.4
	l-4.6,5.4L27.2,50z M17.3,47.5h9.8L43,44.8l4-4.8c0.1-0.2,0.2-0.4,0.2-0.6c0-0.2-0.1-0.5-0.3-0.6c-0.2-0.2-0.4-0.2-0.6-0.2
	c-0.2,0-0.4,0.1-0.6,0.3L42,43.2l-14.4,0.2l0-2.5l5.2-0.1c0.1-0.6,0-1.2-0.1-1.7c-0.1-0.2-0.9-0.4-1.3-0.5c-0.4-0.1-0.8-0.2-1.2-0.4
	c-0.7-0.3-1.4-0.7-2.1-1.1c-0.7-0.4-1.5-0.8-2.2-1.1c-1-0.5-2.1-0.7-3.2-0.7c-1.1,0-2.2,0.3-3.2,0.8c-0.9,0.5-1.6,1.1-2.1,2
	L17.3,47.5z"/>
<path class="st0" d="M51,8.7V6.1l-7.4-2.9L29.2,11H16.8v18.4h28.4v-5.2c0.4,0,0.8,0,1.1,0.1c0.2,0,0.5,0,0.7,0
	c1.3,0,2.6-0.3,3.9-0.7v-2.6l0,0c-1.4,0.7-2.9,1-4.4,0.9c-0.4,0-0.9,0-1.3-0.1c-0.7,0-1.5,0-2.3,0c-1.1,0-2.3,0.1-3.6,0.3l-1.4,0.2
	c-0.4,0.1-0.7,0-1-0.3c-0.3-0.2-0.5-0.6-0.5-1c0-0.4,0-0.8,0.3-1.1s0.5-0.5,0.9-0.6l5.4-1c0,0,0,0,0,0c0,0,0,0,0,0
	c0.5-0.1,0.9-0.3,1.3-0.6c0.4-0.3,0.7-0.7,1-1.1c0.3-0.6,0.5-1.2,0.5-1.9c0-0.7-0.1-1.3-0.4-1.9c-0.3-0.6-0.7-1.1-1.3-1.4
	c-0.5-0.3-1.1-0.5-1.8-0.5h-8l9.4-5.1L51,8.7z M42.3,13.5c0.2,0,0.4,0.1,0.6,0.2c0.2,0.1,0.3,0.3,0.4,0.4c0.1,0.2,0.1,0.4,0.1,0.6
	c0,0.2,0,0.4-0.1,0.6c-0.1,0.2-0.2,0.3-0.4,0.4c-0.1,0.1-0.3,0.1-0.4,0.2l-5.4,1c-0.9,0.2-1.7,0.7-2.3,1.5c-0.6,0.8-0.8,1.7-0.8,2.7
	c0.1,1,0.5,1.9,1.2,2.5c0.7,0.7,1.6,1,2.5,1c0.1,0,0.2,0,0.4,0c0,0,3.8-0.4,4.8-0.4v2.7H19.2V13.5L42.3,13.5z"/>
<path class="st0" d="M32.4,19H30v2.5h2.3V19z"/>
</svg>
